<!DOCTYPE svg PUBLIC "-//W3C//DTD SVG 1.1//EN" "http://www.w3.org/Graphics/SVG/1.1/DTD/svg11.dtd">
<svg xmlns="http://www.w3.org/2000/svg" xmlns:xlink="http://www.w3.org/1999/xlink" version="1.1" width="433px" height="413px" viewBox="-0.5 -0.5 433 413"><defs/><g><path d="M 90 40 L 170 40 L 190 60 L 170 80 L 90 80 L 70 60 Z" fill="#f8cecc" stroke="#b85450" stroke-miterlimit="10" pointer-events="all"/><path d="M 90 320 L 170 320 L 190 340 L 170 360 L 90 360 L 70 340 Z" fill="#f8cecc" stroke="#b85450" stroke-miterlimit="10" pointer-events="all"/><path d="M 90 180 L 170 180 L 190 200 L 170 220 L 90 220 L 70 200 Z" fill="#f8cecc" stroke="#b85450" stroke-miterlimit="10" pointer-events="all"/><path d="M 160 110 L 240 110 L 260 130 L 240 150 L 160 150 L 140 130 Z" fill="#f8cecc" stroke="#b85450" stroke-miterlimit="10" transform="rotate(-90,200,130)" pointer-events="all"/><path d="M 160 250 L 240 250 L 260 270 L 240 290 L 160 290 L 140 270 Z" fill="#f8cecc" stroke="#b85450" stroke-miterlimit="10" transform="rotate(-90,200,270)" pointer-events="all"/><path d="M 20 110 L 100 110 L 120 130 L 100 150 L 20 150 L 0 130 Z" fill="#ffffff" stroke="#000000" stroke-miterlimit="10" transform="rotate(-90,60,130)" pointer-events="all"/><path d="M 20 250 L 100 250 L 120 270 L 100 290 L 20 290 L 0 270 Z" fill="#ffffff" stroke="#000000" stroke-miterlimit="10" transform="rotate(-90,60,270)" pointer-events="all"/><rect x="115" y="0" width="30" height="40" fill="none" stroke="none" pointer-events="all"/><g fill="#000000" font-family="Helvetica" text-anchor="middle" font-size="32px"><text x="129.5" y="34.5">0</text></g><rect x="220" y="110" width="30" height="40" fill="none" stroke="none" pointer-events="all"/><g fill="#000000" font-family="Helvetica" text-anchor="middle" font-size="32px"><text x="234.5" y="144.5">1</text></g><rect x="220" y="250" width="30" height="40" fill="none" stroke="none" pointer-events="all"/><g fill="#000000" font-family="Helvetica" text-anchor="middle" font-size="32px"><text x="234.5" y="284.5">2</text></g><rect x="115" y="370" width="30" height="40" fill="none" stroke="none" pointer-events="all"/><g fill="#000000" font-family="Helvetica" text-anchor="middle" font-size="32px"><text x="129.5" y="404.5">3</text></g><rect x="0" y="250" width="30" height="40" fill="none" stroke="none" pointer-events="all"/><g fill="#000000" font-family="Helvetica" text-anchor="middle" font-size="32px"><text x="14.5" y="284.5">4</text></g><rect x="0" y="110" width="30" height="40" fill="none" stroke="none" pointer-events="all"/><g fill="#000000" font-family="Helvetica" text-anchor="middle" font-size="32px"><text x="14.5" y="144.5">5</text></g><rect x="115" y="140" width="30" height="40" fill="none" stroke="none" pointer-events="all"/><g fill="#000000" font-family="Helvetica" text-anchor="middle" font-size="32px"><text x="129.5" y="174.5">6</text></g><rect x="280" y="120" width="150" height="130" fill="none" stroke="none" pointer-events="all"/><g fill="#000000" font-family="Helvetica" text-anchor="middle" font-size="32px"><text x="354.5" y="180.5">Display:</text><text x="354.5" y="218.5">1111001</text></g></g></svg>