<!DOCTYPE svg PUBLIC "-//W3C//DTD SVG 1.1//EN" "http://www.w3.org/Graphics/SVG/1.1/DTD/svg11.dtd">
<svg xmlns="http://www.w3.org/2000/svg" xmlns:xlink="http://www.w3.org/1999/xlink" version="1.1" width="622px" height="613px" viewBox="-0.5 -0.5 622 613"><defs/><g><path d="M 114 304 L 170 304 L 198 355 L 170 406 L 114 406 L 86 355 Z" fill="#dae8fc" stroke="#6c8ebf" stroke-width="4" stroke-miterlimit="10" pointer-events="all"/><path d="M 114 406 L 170 406 L 198 457 L 170 508 L 114 508 L 86 457 Z" fill="#dae8fc" stroke="#6c8ebf" stroke-width="4" stroke-miterlimit="10" pointer-events="all"/><path d="M 198 355 L 254 355 L 282 406 L 254 457 L 198 457 L 170 406 Z" fill="#dae8fc" stroke="#6c8ebf" stroke-width="4" stroke-miterlimit="10" pointer-events="all"/><path d="M 198 253 L 254 253 L 282 304 L 254 355 L 198 355 L 170 304 Z" fill="#dae8fc" stroke="#6c8ebf" stroke-width="4" stroke-miterlimit="10" pointer-events="all"/><path d="M 282 304 L 338 304 L 366 355 L 338 406 L 282 406 L 254 355 Z" fill="#dae8fc" stroke="#6c8ebf" stroke-width="4" stroke-miterlimit="10" pointer-events="all"/><path d="M 282 406 L 338 406 L 366 457 L 338 508 L 282 508 L 254 457 Z" fill="#dae8fc" stroke="#6c8ebf" stroke-width="4" stroke-miterlimit="10" pointer-events="all"/><path d="M 198 457 L 254 457 L 282 508 L 254 559 L 198 559 L 170 508 Z" fill="#dae8fc" stroke="#6c8ebf" stroke-width="4" stroke-miterlimit="10" pointer-events="all"/><path d="M 282 104 L 338 104 L 366 155 L 338 206 L 282 206 L 254 155 Z" fill="#dae8fc" stroke="#6c8ebf" stroke-width="4" stroke-miterlimit="10" pointer-events="all"/><path d="M 282 206 L 338 206 L 366 257 L 338 308 L 282 308 L 254 257 Z" fill="#dae8fc" stroke="#6c8ebf" stroke-width="4" stroke-miterlimit="10" pointer-events="all"/><path d="M 366 155 L 422 155 L 450 206 L 422 257 L 366 257 L 338 206 Z" fill="#dae8fc" stroke="#6c8ebf" stroke-width="4" stroke-miterlimit="10" pointer-events="all"/><path d="M 366 53 L 422 53 L 450 104 L 422 155 L 366 155 L 338 104 Z" fill="#dae8fc" stroke="#6c8ebf" stroke-width="4" stroke-miterlimit="10" pointer-events="all"/><path d="M 450 104 L 506 104 L 534 155 L 506 206 L 450 206 L 422 155 Z" fill="#dae8fc" stroke="#6c8ebf" stroke-width="4" stroke-miterlimit="10" pointer-events="all"/><path d="M 450 206 L 506 206 L 534 257 L 506 308 L 450 308 L 422 257 Z" fill="#dae8fc" stroke="#6c8ebf" stroke-width="4" stroke-miterlimit="10" pointer-events="all"/><path d="M 366 457 L 422 457 L 450 508 L 422 559 L 366 559 L 338 508 Z" fill="#dae8fc" stroke="#6c8ebf" stroke-width="4" stroke-miterlimit="10" pointer-events="all"/><path d="M 450 406 L 506 406 L 534 457 L 506 508 L 450 508 L 422 457 Z" fill="#dae8fc" stroke="#6c8ebf" stroke-width="4" stroke-miterlimit="10" pointer-events="all"/><path d="M 450 304 L 506 304 L 534 355 L 506 406 L 450 406 L 422 355 Z" fill="#dae8fc" stroke="#6c8ebf" stroke-width="4" stroke-miterlimit="10" pointer-events="all"/><path d="M 534 355 L 590 355 L 618 406 L 590 457 L 534 457 L 506 406 Z" fill="#dae8fc" stroke="#6c8ebf" stroke-width="4" stroke-miterlimit="10" pointer-events="all"/><path d="M 534 457 L 590 457 L 618 508 L 590 559 L 534 559 L 506 508 Z" fill="#dae8fc" stroke="#6c8ebf" stroke-width="4" stroke-miterlimit="10" pointer-events="all"/><path d="M 450 508 L 506 508 L 534 559 L 506 610 L 450 610 L 422 559 Z" fill="#dae8fc" stroke="#6c8ebf" stroke-width="4" stroke-miterlimit="10" pointer-events="all"/><path d="M 30 53 L 86 53 L 114 104 L 86 155 L 30 155 L 2 104 Z" fill="#dae8fc" stroke="#6c8ebf" stroke-width="4" stroke-miterlimit="10" pointer-events="all"/><path d="M 30 155 L 86 155 L 114 206 L 86 257 L 30 257 L 2 206 Z" fill="#dae8fc" stroke="#6c8ebf" stroke-width="4" stroke-miterlimit="10" pointer-events="all"/><path d="M 114 2 L 170 2 L 198 53 L 170 104 L 114 104 L 86 53 Z" fill="#dae8fc" stroke="#6c8ebf" stroke-width="4" stroke-miterlimit="10" pointer-events="all"/><path d="M 198 155 L 254 155 L 282 206 L 254 257 L 198 257 L 170 206 Z" fill="#dae8fc" stroke="#6c8ebf" stroke-width="4" stroke-miterlimit="10" pointer-events="all"/><path d="M 256.88 292.45 L 251.99 283.73 L 262.54 277.82 L 257.41 268.66 L 281.56 272.91 L 272.55 295.71 L 267.42 286.55 Z" fill="#d80073" stroke="#a50040" stroke-linejoin="round" stroke-miterlimit="10" pointer-events="all"/><path d="M 251.83 325.53 L 257.02 316.99 L 267.93 323.61 L 273.38 314.63 L 281.57 337.74 L 257.29 341.13 L 262.74 332.15 Z" fill="#d80073" stroke="#a50040" stroke-linejoin="round" stroke-miterlimit="10" pointer-events="all"/><path d="M 194.98 316.99 L 200.17 325.53 L 189.26 332.15 L 194.71 341.13 L 170.43 337.74 L 178.62 314.63 L 184.07 323.61 Z" fill="#d80073" stroke="#a50040" stroke-linejoin="round" stroke-miterlimit="10" pointer-events="all"/><path d="M 220.83 343.5 L 230.83 343.5 L 230.83 353.5 L 241.33 353.5 L 225.83 372.5 L 210.33 353.5 L 220.83 353.5 Z" fill="#d80073" stroke="#a50040" stroke-linejoin="round" stroke-miterlimit="10" pointer-events="all"/><path d="M 230.83 266.5 L 220.83 266.5 L 220.83 252.5 L 210.33 252.5 L 225.83 233.5 L 241.33 252.5 L 230.83 252.5 Z" fill="#d80073" stroke="#a50040" stroke-linejoin="round" stroke-miterlimit="10" pointer-events="all"/><path d="M 399 282.5 L 389 282.5 L 389 252.5 L 378.5 252.5 L 394 233.5 L 409.5 252.5 L 399 252.5 Z" fill="#1ba1e2" stroke="#006eaf" stroke-linejoin="round" stroke-miterlimit="10" pointer-events="all"/><path d="M 374 223 C 374 199 374 187 394 187 C 380.67 187 380.67 163 394 163 C 407.33 163 407.33 187 394 187 C 414 187 414 199 414 223 Z" fill="#0050ef" stroke="#001dbc" stroke-miterlimit="10" pointer-events="all"/><path d="M 206 334 C 206 310 206 298 226 298 C 212.67 298 212.67 274 226 274 C 239.33 274 239.33 298 226 298 C 246 298 246 310 246 334 Z" fill="#e51400" stroke="#b20000" stroke-miterlimit="10" pointer-events="all"/></g></svg>